<svg width="211" height="59" viewBox="0 0 211 59" fill="none" xmlns="http://www.w3.org/2000/svg">
<path d="M3.58594 31.4766C3.58594 30.9922 3.60156 30.4453 3.63281 29.8359C3.66406 29.2266 3.71094 28.5938 3.77344 27.9375C3.83594 27.2812 3.90625 26.6172 3.98438 25.9453C4.07812 25.2578 4.17969 24.6016 4.28906 23.9766C4.39844 23.3359 4.51562 22.75 4.64062 22.2188C4.78125 21.6719 4.92188 21.2031 5.0625 20.8125C5.23438 20.3906 5.50781 20.0469 5.88281 19.7812C6.25781 19.5 6.75781 19.3594 7.38281 19.3594C7.94531 19.3594 8.39062 19.5625 8.71875 19.9688C9.0625 20.375 9.23438 20.8594 9.23438 21.4219C9.23438 21.5156 9.15625 21.8125 9 22.3125C8.85938 22.7969 8.69531 23.4531 8.50781 24.2812C8.33594 25.0938 8.17188 26.0625 8.01562 27.1875C7.875 28.2969 7.80469 29.5156 7.80469 30.8438C7.80469 31.3594 7.82812 31.9922 7.875 32.7422C7.9375 33.4922 8.04688 34.2812 8.20312 35.1094C8.35938 35.9219 8.57812 36.7422 8.85938 37.5703C9.14062 38.3828 9.51562 39.1172 9.98438 39.7734C10.4688 40.4297 11.0547 40.9609 11.7422 41.3672C12.4297 41.7734 13.25 41.9766 14.2031 41.9766C15.0156 41.9766 15.7656 41.8516 16.4531 41.6016C17.1406 41.3516 17.7656 41.0312 18.3281 40.6406C18.9062 40.2344 19.4219 39.7812 19.875 39.2812C20.3438 38.7812 20.7578 38.2812 21.1172 37.7812C21.4922 37.2812 21.8125 36.8125 22.0781 36.375C22.3594 35.9375 22.6016 35.5703 22.8047 35.2734C22.8984 34.3672 22.9688 33.5703 23.0156 32.8828C23.0625 32.1797 23.0938 31.5391 23.1094 30.9609C23.1406 30.3828 23.1562 29.8438 23.1562 29.3438C23.1719 28.8281 23.1797 28.3047 23.1797 27.7734C23.1797 27.2266 23.1719 26.6484 23.1562 26.0391C23.1562 25.4141 23.1562 24.7031 23.1562 23.9062V21.1172C23.1562 20.7891 23.2266 20.5156 23.3672 20.2969C23.5234 20.0781 23.7109 19.8984 23.9297 19.7578C24.1484 19.6172 24.3906 19.5234 24.6562 19.4766C24.9219 19.4141 25.1641 19.3828 25.3828 19.3828C25.5703 19.3828 25.7734 19.4141 25.9922 19.4766C26.2109 19.5391 26.4141 19.6328 26.6016 19.7578C26.7891 19.8828 26.9453 20.0547 27.0703 20.2734C27.1953 20.4766 27.2578 20.7188 27.2578 21L27.2109 43.2422C27.2109 44.0391 27.0547 44.5781 26.7422 44.8594C26.4297 45.125 25.9531 45.2578 25.3125 45.2578C24.7344 45.2578 24.2812 45.2109 23.9531 45.1172C23.6406 45.0391 23.4062 44.8828 23.25 44.6484C23.1094 44.4141 23.0234 44.0938 22.9922 43.6875C22.9609 43.2812 22.9453 42.7578 22.9453 42.1172V40.5234C22.5391 41.2578 22.0781 41.9609 21.5625 42.6328C21.0625 43.2891 20.4766 43.8672 19.8047 44.3672C19.1328 44.8672 18.3594 45.2656 17.4844 45.5625C16.6094 45.8594 15.6094 46.0078 14.4844 46.0078C12.8594 46.0078 11.4609 45.7578 10.2891 45.2578C9.13281 44.7734 8.14844 44.1328 7.33594 43.3359C6.53906 42.5234 5.89062 41.6016 5.39062 40.5703C4.90625 39.5391 4.52344 38.4844 4.24219 37.4062C3.97656 36.3281 3.79688 35.2734 3.70312 34.2422C3.625 33.2109 3.58594 32.2891 3.58594 31.4766ZM35.9062 42.8906C35.9062 42.6562 35.9141 42.3359 35.9297 41.9297C35.9453 41.5234 35.9531 40.9922 35.9531 40.3359C35.9531 39.2734 35.9219 38.1562 35.8594 36.9844C35.7969 35.7969 35.7266 34.5703 35.6484 33.3047C35.5859 32.0234 35.5234 30.7109 35.4609 29.3672C35.4141 28.0078 35.3906 26.6172 35.3906 25.1953C35.3906 24.6484 35.4141 24.0391 35.4609 23.3672C35.5078 22.6797 35.6016 22.0469 35.7422 21.4688C35.8828 20.875 36.0859 20.3828 36.3516 19.9922C36.6172 19.5859 36.9766 19.3828 37.4297 19.3828C37.9141 19.3828 38.2891 19.5391 38.5547 19.8516C38.8359 20.1484 39.0391 20.5391 39.1641 21.0234C39.3047 21.4922 39.3828 22.0312 39.3984 22.6406C39.4297 23.2344 39.4453 23.8359 39.4453 24.4453C39.9922 23.6484 40.6875 22.9297 41.5312 22.2891C42.375 21.6328 43.2734 21.0781 44.2266 20.625C45.1953 20.1719 46.1719 19.8203 47.1562 19.5703C48.1406 19.3203 49.0547 19.1953 49.8984 19.1953C51.4297 19.1953 52.7734 19.4219 53.9297 19.875C55.1016 20.3125 56.1094 20.9141 56.9531 21.6797C57.8125 22.4453 58.5234 23.3359 59.0859 24.3516C59.6641 25.3516 60.125 26.4141 60.4688 27.5391C60.8125 28.6641 61.0547 29.8203 61.1953 31.0078C61.3516 32.1797 61.4297 33.3125 61.4297 34.4062V38.3906C61.4297 39.4062 61.3594 40.3906 61.2188 41.3438C61.0938 42.2812 60.9062 43.1172 60.6562 43.8516C60.4062 44.5703 60.0938 45.1484 59.7188 45.5859C59.3594 46.0391 58.9453 46.2656 58.4766 46.2656C58.1328 46.2656 57.8125 46.2422 57.5156 46.1953C57.2188 46.1484 56.9531 46.0312 56.7188 45.8438C56.5 45.6719 56.3281 45.3984 56.2031 45.0234C56.0781 44.6484 56.0156 44.1328 56.0156 43.4766C56.0156 42.8672 56.0781 42.2344 56.2031 41.5781C56.3281 40.9062 56.4609 40.2344 56.6016 39.5625C56.7578 38.8906 56.8984 38.2188 57.0234 37.5469C57.1484 36.875 57.2109 36.2109 57.2109 35.5547C57.2109 34.8203 57.1875 34.0938 57.1406 33.375C57.1094 32.6406 57.0312 31.9219 56.9062 31.2188C56.7812 30.5156 56.6016 29.8359 56.3672 29.1797C56.1484 28.5078 55.8438 27.8672 55.4531 27.2578C55.1406 26.7578 54.8125 26.2734 54.4688 25.8047C54.1406 25.3203 53.7344 24.8906 53.25 24.5156C52.7812 24.1406 52.2109 23.8438 51.5391 23.625C50.8672 23.3906 50.0391 23.2734 49.0547 23.2734C48.3828 23.2734 47.6172 23.4141 46.7578 23.6953C45.8984 23.9609 45.0312 24.3516 44.1562 24.8672C43.2969 25.3672 42.4688 25.9766 41.6719 26.6953C40.8906 27.3984 40.2344 28.1875 39.7031 29.0625V35.0625C39.7031 35.2656 39.7109 35.5312 39.7266 35.8594C39.7578 36.1719 39.7969 36.5234 39.8438 36.9141C39.8906 37.3047 39.9453 37.7188 40.0078 38.1562C40.0859 38.5938 40.1641 39.0234 40.2422 39.4453C40.3672 40.1016 40.5156 40.7266 40.6875 41.3203C40.8594 41.9141 40.9453 42.4688 40.9453 42.9844C40.9453 43.3438 40.9297 43.6875 40.8984 44.0156C40.8672 44.3438 40.7812 44.6328 40.6406 44.8828C40.5156 45.1172 40.3125 45.3047 40.0312 45.4453C39.75 45.5859 39.3594 45.6562 38.8594 45.6562C38.5312 45.6562 38.1953 45.625 37.8516 45.5625C37.5078 45.5156 37.1875 45.3984 36.8906 45.2109C36.6094 45.0234 36.375 44.75 36.1875 44.3906C36 44.0156 35.9062 43.5156 35.9062 42.8906Z" fill="#BB6BD9"/>
<path d="M77.7656 46.9922C76.6875 46.9922 75.7344 46.75 74.9062 46.2656C74.0781 45.7812 73.3438 45.1406 72.7031 44.3438C72.0781 43.5312 71.5391 42.6016 71.0859 41.5547C70.6484 40.5078 70.2734 39.4219 69.9609 38.2969C69.6641 37.1719 69.4219 36.0391 69.2344 34.8984C69.0625 33.7578 68.9297 32.7031 68.8359 31.7344C68.7422 30.75 68.6797 29.8906 68.6484 29.1562C68.6172 28.4062 68.6016 27.8516 68.6016 27.4922C68.6016 25.9609 68.6953 24.7422 68.8828 23.8359C69.0703 22.9141 69.3047 22.2188 69.5859 21.75C69.8672 21.2656 70.1719 20.9531 70.5 20.8125C70.8281 20.6562 71.1328 20.5781 71.4141 20.5781C72.1328 20.5781 72.6094 20.7734 72.8438 21.1641C73.0938 21.5391 73.2188 22.0703 73.2188 22.7578C73.2188 23.3203 73.1641 23.9141 73.0547 24.5391C72.9609 25.1484 72.9141 25.7422 72.9141 26.3203C72.9141 26.6641 72.9219 27.1484 72.9375 27.7734C72.9531 28.3984 72.9844 29.1094 73.0312 29.9062C73.0938 30.6875 73.1719 31.5391 73.2656 32.4609C73.375 33.3672 73.5078 34.2734 73.6641 35.1797C73.8359 36.0859 74.0391 36.9609 74.2734 37.8047C74.5234 38.6484 74.8125 39.4062 75.1406 40.0781C75.4844 40.7344 75.8672 41.2812 76.2891 41.7188C76.7266 42.1406 77.2266 42.3906 77.7891 42.4688C78.4453 42.5625 79.0859 42.4844 79.7109 42.2344C80.3359 41.9688 80.9141 41.5781 81.4453 41.0625C81.9922 40.5469 82.4844 39.9297 82.9219 39.2109C83.375 38.4766 83.7578 37.6875 84.0703 36.8438C84.3984 35.9844 84.6484 35.0938 84.8203 34.1719C85.0078 33.2344 85.1016 32.2969 85.1016 31.3594C85.1016 30.9531 85.0781 30.4375 85.0312 29.8125C84.9844 29.1719 84.9297 28.5078 84.8672 27.8203C84.8203 27.1328 84.7734 26.4688 84.7266 25.8281C84.6797 25.1719 84.6562 24.6172 84.6562 24.1641C84.6562 23.9766 84.7031 23.7344 84.7969 23.4375C84.9062 23.125 85.0703 22.8281 85.2891 22.5469C85.5078 22.25 85.7812 22 86.1094 21.7969C86.4531 21.5938 86.8594 21.4922 87.3281 21.4922C87.6094 21.4922 87.875 21.5703 88.125 21.7266C88.3906 21.8828 88.625 22.0781 88.8281 22.3125C89.0469 22.5312 89.2188 22.7656 89.3438 23.0156C89.4688 23.2656 89.5391 23.4922 89.5547 23.6953C89.5859 24.1953 89.6016 24.7891 89.6016 25.4766C89.6172 26.1484 89.625 26.8281 89.625 27.5156C89.6406 28.4531 89.6562 29.4453 89.6719 30.4922C89.7031 31.5234 89.7578 32.5469 89.8359 33.5625C89.9141 34.5781 90.0312 35.5469 90.1875 36.4688C90.3438 37.3906 90.5625 38.2031 90.8438 38.9062C91.125 39.5938 91.4688 40.1484 91.875 40.5703C92.2969 40.9766 92.8125 41.1797 93.4219 41.1797C94.1875 41.1797 94.9688 41.0625 95.7656 40.8281C96.5625 40.5781 97.3281 40.2266 98.0625 39.7734C98.8125 39.3047 99.5156 38.7344 100.172 38.0625C100.844 37.375 101.422 36.5859 101.906 35.6953C102.406 34.8047 102.797 33.8203 103.078 32.7422C103.359 31.6484 103.5 30.4609 103.5 29.1797C103.5 28.8516 103.484 28.4375 103.453 27.9375C103.438 27.4219 103.398 26.8594 103.336 26.25C103.273 25.6406 103.188 25.0156 103.078 24.375C102.969 23.7188 102.828 23.0938 102.656 22.5C102.578 22.2344 102.469 21.9688 102.328 21.7031C102.203 21.4375 102.078 21.1719 101.953 20.9062C101.828 20.6406 101.719 20.375 101.625 20.1094C101.531 19.8281 101.484 19.5469 101.484 19.2656C101.484 18.5625 101.672 17.9688 102.047 17.4844C102.438 16.9844 103.055 16.7344 103.898 16.7344C104.117 16.7344 104.352 16.7734 104.602 16.8516C104.867 16.9141 105.109 17.0391 105.328 17.2266C105.562 17.4141 105.766 17.6641 105.938 17.9766C106.109 18.2891 106.227 18.6875 106.289 19.1719C106.336 19.375 106.43 19.7891 106.57 20.4141C106.711 21.0234 106.852 21.7578 106.992 22.6172C107.148 23.4766 107.281 24.4062 107.391 25.4062C107.516 26.3906 107.578 27.3594 107.578 28.3125C107.578 29.9062 107.391 31.4453 107.016 32.9297C106.656 34.4141 106.148 35.8047 105.492 37.1016C104.836 38.3984 104.055 39.5859 103.148 40.6641C102.258 41.7266 101.281 42.6406 100.219 43.4062C99.1562 44.1719 98.0312 44.7656 96.8438 45.1875C95.6562 45.6094 94.4531 45.8203 93.2344 45.8203C92.3594 45.8203 91.5859 45.6406 90.9141 45.2812C90.2578 44.9219 89.6719 44.4297 89.1562 43.8047C88.6406 43.1797 88.1875 42.4609 87.7969 41.6484C87.4062 40.8203 87.0469 39.9375 86.7188 39C86.3438 39.9688 85.8438 40.9297 85.2188 41.8828C84.6094 42.8359 83.9062 43.6953 83.1094 44.4609C82.3281 45.2109 81.4766 45.8203 80.5547 46.2891C79.6484 46.7578 78.7188 46.9922 77.7656 46.9922ZM114.891 41.9766C114.891 41.5703 114.914 41.1484 114.961 40.7109C115.008 40.2734 115.031 39.8516 115.031 39.4453C115.031 38.4922 114.984 37.5 114.891 36.4688C114.812 35.6406 114.766 34.7734 114.75 33.8672C114.75 32.9609 114.781 32.1641 114.844 31.4766L115.617 22.2188C115.68 21.4688 115.867 20.875 116.18 20.4375C116.508 19.9844 117.086 19.7578 117.914 19.7578C118.258 19.7578 118.555 19.8203 118.805 19.9453C119.07 20.0547 119.289 20.2031 119.461 20.3906C119.648 20.5781 119.797 20.7891 119.906 21.0234C120.016 21.2422 120.094 21.4609 120.141 21.6797C120.781 21.1953 121.484 20.7812 122.25 20.4375C123.016 20.0938 123.805 19.8125 124.617 19.5938C125.43 19.375 126.25 19.2188 127.078 19.125C127.906 19.0156 128.711 18.9609 129.492 18.9609C130.148 18.9609 130.898 19.0078 131.742 19.1016C132.586 19.1797 133.383 19.3594 134.133 19.6406C134.883 19.9219 135.516 20.3281 136.031 20.8594C136.547 21.3906 136.805 22.1094 136.805 23.0156C136.805 23.6562 136.602 24.1797 136.195 24.5859C135.805 24.9766 135.281 25.1719 134.625 25.1719C134.125 25.1719 133.734 25.0625 133.453 24.8438C133.172 24.6094 132.922 24.3516 132.703 24.0703C132.609 23.9609 132.5 23.8438 132.375 23.7188C132.25 23.5938 132.07 23.4766 131.836 23.3672C131.617 23.2578 131.328 23.1719 130.969 23.1094C130.609 23.0469 130.148 23.0156 129.586 23.0156C127.82 23.0156 126.289 23.2031 124.992 23.5781C123.695 23.9375 122.625 24.5078 121.781 25.2891C120.938 26.0703 120.312 27.0781 119.906 28.3125C119.5 29.5312 119.297 31 119.297 32.7188C119.297 33.3594 119.305 33.9688 119.32 34.5469C119.336 35.1094 119.359 35.6719 119.391 36.2344C119.438 36.7969 119.484 37.3672 119.531 37.9453C119.578 38.5234 119.625 39.1406 119.672 39.7969C119.703 40.2969 119.75 40.8125 119.812 41.3438C119.875 41.875 119.906 42.3906 119.906 42.8906C119.906 43.0312 119.867 43.2266 119.789 43.4766C119.711 43.7266 119.578 43.9766 119.391 44.2266C119.219 44.4609 118.984 44.6719 118.688 44.8594C118.406 45.0312 118.055 45.1172 117.633 45.1172C117.086 45.1172 116.633 45.0547 116.273 44.9297C115.93 44.8047 115.648 44.6172 115.43 44.3672C115.227 44.1016 115.086 43.7734 115.008 43.3828C114.93 42.9766 114.891 42.5078 114.891 41.9766ZM146.344 14.25C146.078 14.25 145.695 14.1875 145.195 14.0625C144.711 13.9219 144.227 13.7187 143.742 13.4531C143.273 13.1875 142.859 12.8516 142.5 12.4453C142.156 12.0391 141.984 11.5625 141.984 11.0156C141.984 10.75 142.039 10.4766 142.148 10.1953C142.258 9.91406 142.406 9.65625 142.594 9.42188C142.797 9.1875 143.039 9 143.32 8.85938C143.602 8.70312 143.914 8.625 144.258 8.625C144.555 8.625 144.922 8.74219 145.359 8.97656C145.812 9.21094 146.242 9.51562 146.648 9.89062C147.055 10.25 147.406 10.6563 147.703 11.1094C148 11.5469 148.148 11.9766 148.148 12.3984C148.148 12.5078 148.109 12.6641 148.031 12.8672C147.969 13.0703 147.859 13.2734 147.703 13.4766C147.562 13.6797 147.375 13.8594 147.141 14.0156C146.922 14.1719 146.656 14.25 146.344 14.25ZM143.086 43.3359C143.055 43.2109 143.016 42.9688 142.969 42.6094C142.938 42.25 142.898 41.6562 142.852 40.8281C142.82 40 142.789 38.8828 142.758 37.4766C142.742 36.0547 142.734 34.2266 142.734 31.9922C142.734 30.2422 142.836 28.4531 143.039 26.625C143.258 24.7812 143.523 23.0391 143.836 21.3984C143.852 21.2578 143.906 21.0703 144 20.8359C144.109 20.5859 144.25 20.3438 144.422 20.1094C144.609 19.8594 144.828 19.6484 145.078 19.4766C145.328 19.2891 145.617 19.1953 145.945 19.1953C146.289 19.1953 146.57 19.2578 146.789 19.3828C147.008 19.4922 147.172 19.6562 147.281 19.875C147.406 20.0781 147.492 20.3203 147.539 20.6016C147.586 20.8672 147.609 21.1484 147.609 21.4453C147.609 22.2734 147.578 23.1875 147.516 24.1875C147.453 25.1719 147.383 26.1797 147.305 27.2109C147.242 28.2266 147.18 29.2266 147.117 30.2109C147.07 31.1953 147.047 32.0859 147.047 32.8828C147.047 33.5859 147.094 34.3828 147.188 35.2734C147.297 36.1641 147.414 37.0781 147.539 38.0156C147.68 38.9531 147.797 39.875 147.891 40.7812C148 41.6719 148.055 42.4844 148.055 43.2188C148.055 43.9844 147.859 44.5781 147.469 45C147.078 45.4062 146.641 45.6094 146.156 45.6094C145.219 45.6094 144.516 45.4375 144.047 45.0938C143.578 44.7656 143.258 44.1797 143.086 43.3359ZM169.312 45.3516C167.766 45.3516 166.484 45.0469 165.469 44.4375C164.453 43.8125 163.633 42.9844 163.008 41.9531C162.383 40.9062 161.914 39.7188 161.602 38.3906C161.289 37.0469 161.07 35.6562 160.945 34.2188C160.82 32.7656 160.75 31.3203 160.734 29.8828C160.719 28.4453 160.695 27.1172 160.664 25.8984C160.242 25.8984 159.859 25.8984 159.516 25.8984C159.188 25.8984 158.859 25.9062 158.531 25.9219C158.344 25.9375 158.172 25.9531 158.016 25.9688C157.859 25.9688 157.688 25.9766 157.5 25.9922C157.328 25.9922 157.125 26 156.891 26.0156C156.672 26.0156 156.398 26.0156 156.07 26.0156C155.883 26.0156 155.633 25.9688 155.32 25.875C155.008 25.7812 154.695 25.6484 154.383 25.4766C154.07 25.3047 153.797 25.0938 153.562 24.8438C153.344 24.5781 153.234 24.2812 153.234 23.9531C153.234 23.625 153.305 23.3203 153.445 23.0391C153.586 22.7578 153.773 22.5234 154.008 22.3359C154.258 22.1328 154.547 21.9766 154.875 21.8672C155.203 21.7578 155.547 21.7031 155.906 21.7031L160.828 21.8203C160.875 21.4297 160.922 21.0391 160.969 20.6484C161.016 20.2578 161.055 19.875 161.086 19.5C161.133 19.0469 161.164 18.625 161.18 18.2344C161.195 17.8438 161.219 17.4688 161.25 17.1094C161.281 16.7344 161.312 16.3672 161.344 16.0078C161.391 15.6328 161.461 15.2422 161.555 14.8359C161.602 14.5703 161.711 14.3125 161.883 14.0625C162.055 13.7969 162.25 13.5625 162.469 13.3594C162.703 13.1562 162.945 12.9922 163.195 12.8672C163.461 12.7422 163.711 12.6797 163.945 12.6797C164.133 12.6797 164.328 12.7266 164.531 12.8203C164.734 12.9141 164.922 13.0547 165.094 13.2422C165.266 13.4141 165.406 13.625 165.516 13.875C165.641 14.1094 165.703 14.375 165.703 14.6719C165.703 15.2969 165.695 15.8203 165.68 16.2422C165.68 16.6641 165.664 17.0234 165.633 17.3203C165.617 17.6172 165.594 17.875 165.562 18.0938C165.531 18.3125 165.5 18.5312 165.469 18.75C165.438 18.9219 165.406 19.1094 165.375 19.3125C165.359 19.5 165.336 19.7188 165.305 19.9688C165.289 20.2188 165.266 20.5078 165.234 20.8359C165.203 21.1484 165.164 21.5234 165.117 21.9609C166.008 21.9453 166.852 21.9297 167.648 21.9141C168.461 21.8828 169.258 21.8594 170.039 21.8438C170.82 21.8125 171.617 21.7891 172.43 21.7734C173.242 21.7578 174.109 21.75 175.031 21.75C175.344 21.75 175.617 21.8359 175.852 22.0078C176.102 22.1641 176.305 22.3594 176.461 22.5938C176.633 22.8281 176.758 23.0781 176.836 23.3438C176.93 23.5938 176.977 23.8125 176.977 24C176.977 24.3281 176.906 24.625 176.766 24.8906C176.625 25.1406 176.453 25.3516 176.25 25.5234C176.047 25.6953 175.82 25.8203 175.57 25.8984C175.32 25.9766 175.094 26.0156 174.891 26.0156L165.305 25.8516C165.242 25.9141 165.211 25.9844 165.211 26.0625C165.211 26.8906 165.195 27.8438 165.164 28.9219C165.133 29.9844 165.125 31.0703 165.141 32.1797C165.172 33.2891 165.242 34.3828 165.352 35.4609C165.461 36.5234 165.656 37.4766 165.938 38.3203C166.234 39.1484 166.633 39.8203 167.133 40.3359C167.633 40.8516 168.289 41.1094 169.102 41.1094C169.367 41.1094 169.68 41.0625 170.039 40.9688C170.414 40.8594 170.781 40.7344 171.141 40.5938C171.5 40.4531 171.836 40.2969 172.148 40.125C172.461 39.9531 172.703 39.7969 172.875 39.6562C173.047 39.5 173.273 39.3594 173.555 39.2344C173.836 39.1094 174.07 39.0469 174.258 39.0469C174.852 39.0469 175.227 39.1953 175.383 39.4922C175.555 39.7734 175.641 40.1641 175.641 40.6641C175.641 40.8359 175.602 41.0469 175.523 41.2969C175.445 41.5312 175.344 41.7266 175.219 41.8828C174.922 42.2578 174.531 42.6562 174.047 43.0781C173.578 43.4844 173.07 43.8594 172.523 44.2031C171.977 44.5312 171.422 44.8047 170.859 45.0234C170.297 45.2422 169.781 45.3516 169.312 45.3516ZM182.086 33.8672C182.086 31.6484 182.406 29.6406 183.047 27.8438C183.688 26.0469 184.633 24.5156 185.883 23.25C187.133 21.9844 188.664 21.0078 190.477 20.3203C192.305 19.6328 194.406 19.2891 196.781 19.2891C197.594 19.2891 198.422 19.375 199.266 19.5469C200.125 19.7188 200.953 19.9688 201.75 20.2969C202.547 20.625 203.297 21.0312 204 21.5156C204.719 22 205.344 22.5625 205.875 23.2031C206.406 23.8281 206.82 24.5312 207.117 25.3125C207.43 26.0781 207.586 26.9141 207.586 27.8203C207.586 28.5234 207.43 29.0312 207.117 29.3438C206.805 29.6562 206.391 29.875 205.875 30C205.422 30.125 204.891 30.2422 204.281 30.3516C203.688 30.4453 203.016 30.6094 202.266 30.8438L186.586 35.7188C186.789 36.6719 187.117 37.4844 187.57 38.1562C188.039 38.8281 188.578 39.3906 189.188 39.8438C189.812 40.2969 190.484 40.6562 191.203 40.9219C191.938 41.1875 192.672 41.3906 193.406 41.5312C194.141 41.6562 194.852 41.7422 195.539 41.7891C196.242 41.8203 196.875 41.8359 197.438 41.8359C198.328 41.8359 199.211 41.7344 200.086 41.5312C200.961 41.3281 201.766 41.1016 202.5 40.8516C203.234 40.6016 203.875 40.375 204.422 40.1719C204.984 39.9688 205.391 39.8672 205.641 39.8672C206.469 39.8672 207.07 40.0547 207.445 40.4297C207.836 40.8047 208.031 41.3906 208.031 42.1875C208.031 42.7031 207.766 43.1484 207.234 43.5234C206.719 43.8984 206.047 44.2109 205.219 44.4609C204.391 44.7109 203.469 44.9062 202.453 45.0469C201.453 45.2031 200.469 45.3125 199.5 45.375C198.547 45.4531 197.672 45.5 196.875 45.5156C196.078 45.5469 195.477 45.5625 195.07 45.5625C193.992 45.5625 192.914 45.4219 191.836 45.1406C190.773 44.875 189.758 44.4922 188.789 43.9922C187.836 43.4922 186.945 42.8906 186.117 42.1875C185.305 41.4688 184.594 40.6797 183.984 39.8203C183.391 38.9453 182.922 38.0078 182.578 37.0078C182.25 36.0078 182.086 34.9609 182.086 33.8672ZM186.469 32.0391C187.203 31.8203 188.047 31.5703 189 31.2891C189.953 31.0078 190.953 30.7109 192 30.3984C193.062 30.0703 194.133 29.7344 195.211 29.3906C196.305 29.0469 197.352 28.7109 198.352 28.3828C199.367 28.0391 200.297 27.7188 201.141 27.4219C202 27.1094 202.719 26.8203 203.297 26.5547C203.125 25.9609 202.836 25.4531 202.43 25.0312C202.023 24.5938 201.508 24.2422 200.883 23.9766C200.273 23.6953 199.562 23.4922 198.75 23.3672C197.938 23.2266 197.047 23.1562 196.078 23.1562C195.641 23.1562 195.117 23.2188 194.508 23.3438C193.914 23.4688 193.281 23.6719 192.609 23.9531C191.953 24.2188 191.281 24.5781 190.594 25.0312C189.922 25.4844 189.305 26.0391 188.742 26.6953C188.18 27.3516 187.695 28.125 187.289 29.0156C186.883 29.8906 186.609 30.8984 186.469 32.0391Z" fill="#333333"/>
</svg>
